<mxfile host="app.diagrams.net" modified="2022-04-22T08:00:05.289Z" agent="5.0 (Macintosh; Intel Mac OS X 10_15_7) AppleWebKit/537.36 (KHTML, like Gecko) Chrome/100.0.4896.127 Safari/537.36" etag="3TTE2ZBWituDoa4QWO7H" version="17.4.1" type="github">
  <diagram id="HoGcU0mEmMi8AQ9o4Wg-" name="Page-1">
    <mxGraphModel dx="1188" dy="662" grid="0" gridSize="10" guides="1" tooltips="1" connect="1" arrows="1" fold="1" page="1" pageScale="1" pageWidth="1169" pageHeight="827" math="0" shadow="0">
      <root>
        <mxCell id="0" />
        <mxCell id="1" parent="0" />
        <mxCell id="Zu65PiX_Fs4sWuQjeC40-2" value="request" style="swimlane;fontStyle=0;childLayout=stackLayout;horizontal=1;startSize=30;horizontalStack=0;resizeParent=1;resizeParentMax=0;resizeLast=0;collapsible=1;marginBottom=0;" vertex="1" parent="1">
          <mxGeometry x="45" y="304" width="140" height="60" as="geometry" />
        </mxCell>
        <mxCell id="Zu65PiX_Fs4sWuQjeC40-3" value="headerA :  xxx" style="text;strokeColor=none;fillColor=none;align=left;verticalAlign=middle;spacingLeft=4;spacingRight=4;overflow=hidden;points=[[0,0.5],[1,0.5]];portConstraint=eastwest;rotatable=0;" vertex="1" parent="Zu65PiX_Fs4sWuQjeC40-2">
          <mxGeometry y="30" width="140" height="30" as="geometry" />
        </mxCell>
        <mxCell id="Zu65PiX_Fs4sWuQjeC40-7" value="Service A" style="swimlane;" vertex="1" parent="1">
          <mxGeometry x="209" y="236" width="808" height="161" as="geometry" />
        </mxCell>
        <mxCell id="Zu65PiX_Fs4sWuQjeC40-31" style="edgeStyle=orthogonalEdgeStyle;rounded=0;orthogonalLoop=1;jettySize=auto;html=1;exitX=1;exitY=0.5;exitDx=0;exitDy=0;entryX=0;entryY=0.5;entryDx=0;entryDy=0;fontColor=#000000;" edge="1" parent="Zu65PiX_Fs4sWuQjeC40-7" source="Zu65PiX_Fs4sWuQjeC40-8" target="Zu65PiX_Fs4sWuQjeC40-9">
          <mxGeometry relative="1" as="geometry" />
        </mxCell>
        <mxCell id="Zu65PiX_Fs4sWuQjeC40-8" value="&lt;pre style=&quot;background-color: #ffffff ; color: #080808 ; font-family: &amp;#34;jetbrains mono&amp;#34; , monospace ; font-size: 9.8pt&quot;&gt;&lt;span style=&quot;color: #000000&quot;&gt;CatProviderHandler&lt;/span&gt;&lt;/pre&gt;&lt;pre style=&quot;background-color: #ffffff ; color: #080808 ; font-family: &amp;#34;jetbrains mono&amp;#34; , monospace ; font-size: 9.8pt&quot;&gt;&lt;span style=&quot;color: #000000&quot;&gt;.Handle()&lt;/span&gt;&lt;/pre&gt;" style="shape=process;whiteSpace=wrap;html=1;backgroundOutline=1;" vertex="1" parent="Zu65PiX_Fs4sWuQjeC40-7">
          <mxGeometry x="38" y="67.75" width="191" height="61" as="geometry" />
        </mxCell>
        <mxCell id="Zu65PiX_Fs4sWuQjeC40-32" style="edgeStyle=orthogonalEdgeStyle;rounded=0;orthogonalLoop=1;jettySize=auto;html=1;exitX=1;exitY=0.5;exitDx=0;exitDy=0;fontColor=#000000;" edge="1" parent="Zu65PiX_Fs4sWuQjeC40-7" source="Zu65PiX_Fs4sWuQjeC40-9" target="Zu65PiX_Fs4sWuQjeC40-11">
          <mxGeometry relative="1" as="geometry" />
        </mxCell>
        <mxCell id="Zu65PiX_Fs4sWuQjeC40-9" value="business_logic" style="shape=process;whiteSpace=wrap;html=1;backgroundOutline=1;" vertex="1" parent="Zu65PiX_Fs4sWuQjeC40-7">
          <mxGeometry x="257" y="68.75" width="120" height="60" as="geometry" />
        </mxCell>
        <mxCell id="Zu65PiX_Fs4sWuQjeC40-10" value="&lt;pre style=&quot;background-color: #ffffff ; color: #080808 ; font-family: &amp;#34;jetbrains mono&amp;#34; , monospace ; font-size: 9.8pt&quot;&gt;&lt;pre style=&quot;font-family: &amp;#34;jetbrains mono&amp;#34; , monospace ; font-size: 9.8pt&quot;&gt;&lt;span style=&quot;color: #000000&quot;&gt;CatConsumerHandler&lt;/span&gt;&lt;/pre&gt;&lt;/pre&gt;&lt;pre style=&quot;background-color: #ffffff ; color: #080808 ; font-family: &amp;#34;jetbrains mono&amp;#34; , monospace ; font-size: 9.8pt&quot;&gt;&lt;span style=&quot;color: #000000&quot;&gt;.Handle()&lt;/span&gt;&lt;/pre&gt;" style="shape=process;whiteSpace=wrap;html=1;backgroundOutline=1;" vertex="1" parent="Zu65PiX_Fs4sWuQjeC40-7">
          <mxGeometry x="568" y="68.75" width="191" height="61" as="geometry" />
        </mxCell>
        <mxCell id="Zu65PiX_Fs4sWuQjeC40-11" value="chassis_client" style="shape=process;whiteSpace=wrap;html=1;backgroundOutline=1;" vertex="1" parent="Zu65PiX_Fs4sWuQjeC40-7">
          <mxGeometry x="410" y="68.75" width="120" height="60" as="geometry" />
        </mxCell>
        <mxCell id="Zu65PiX_Fs4sWuQjeC40-25" value="" style="endArrow=classic;html=1;rounded=0;fontColor=#000000;dashed=1;" edge="1" parent="Zu65PiX_Fs4sWuQjeC40-7">
          <mxGeometry width="50" height="50" relative="1" as="geometry">
            <mxPoint x="145" y="129" as="sourcePoint" />
            <mxPoint x="86" y="174" as="targetPoint" />
          </mxGeometry>
        </mxCell>
        <mxCell id="Zu65PiX_Fs4sWuQjeC40-13" value="Service B" style="swimlane;" vertex="1" parent="1">
          <mxGeometry x="595" y="557" width="423" height="175" as="geometry" />
        </mxCell>
        <mxCell id="Zu65PiX_Fs4sWuQjeC40-43" style="edgeStyle=orthogonalEdgeStyle;rounded=0;orthogonalLoop=1;jettySize=auto;html=1;exitX=1;exitY=0.5;exitDx=0;exitDy=0;entryX=0;entryY=0.5;entryDx=0;entryDy=0;fontColor=#000000;" edge="1" parent="Zu65PiX_Fs4sWuQjeC40-13" source="Zu65PiX_Fs4sWuQjeC40-14" target="Zu65PiX_Fs4sWuQjeC40-15">
          <mxGeometry relative="1" as="geometry" />
        </mxCell>
        <mxCell id="Zu65PiX_Fs4sWuQjeC40-14" value="&lt;pre style=&quot;background-color: #ffffff ; color: #080808 ; font-family: &amp;#34;jetbrains mono&amp;#34; , monospace ; font-size: 9.8pt&quot;&gt;&lt;span style=&quot;color: #000000&quot;&gt;CatProviderHandler&lt;/span&gt;&lt;/pre&gt;&lt;pre style=&quot;background-color: #ffffff ; color: #080808 ; font-family: &amp;#34;jetbrains mono&amp;#34; , monospace ; font-size: 9.8pt&quot;&gt;&lt;span style=&quot;color: #000000&quot;&gt;.Handle()&lt;/span&gt;&lt;/pre&gt;" style="shape=process;whiteSpace=wrap;html=1;backgroundOutline=1;" vertex="1" parent="Zu65PiX_Fs4sWuQjeC40-13">
          <mxGeometry x="39" y="67.75" width="191" height="61" as="geometry" />
        </mxCell>
        <mxCell id="Zu65PiX_Fs4sWuQjeC40-15" value="business_logic" style="shape=process;whiteSpace=wrap;html=1;backgroundOutline=1;" vertex="1" parent="Zu65PiX_Fs4sWuQjeC40-13">
          <mxGeometry x="257" y="68.75" width="120" height="60" as="geometry" />
        </mxCell>
        <mxCell id="Zu65PiX_Fs4sWuQjeC40-21" value="trace header" style="swimlane;fontStyle=0;childLayout=stackLayout;horizontal=1;startSize=30;horizontalStack=0;resizeParent=1;resizeParentMax=0;resizeLast=0;collapsible=1;marginBottom=0;dashed=1;fontColor=#000000;gradientColor=none;" vertex="1" parent="1">
          <mxGeometry x="244" y="412" width="140" height="120" as="geometry" />
        </mxCell>
        <mxCell id="Zu65PiX_Fs4sWuQjeC40-22" value="Child-Message-Id" style="text;strokeColor=none;fillColor=none;align=left;verticalAlign=middle;spacingLeft=4;spacingRight=4;overflow=hidden;points=[[0,0.5],[1,0.5]];portConstraint=eastwest;rotatable=0;dashed=1;fontColor=#000000;opacity=50;" vertex="1" parent="Zu65PiX_Fs4sWuQjeC40-21">
          <mxGeometry y="30" width="140" height="30" as="geometry" />
        </mxCell>
        <mxCell id="Zu65PiX_Fs4sWuQjeC40-23" value="Root-Message-Id" style="text;strokeColor=none;fillColor=none;align=left;verticalAlign=middle;spacingLeft=4;spacingRight=4;overflow=hidden;points=[[0,0.5],[1,0.5]];portConstraint=eastwest;rotatable=0;dashed=1;fontColor=#000000;opacity=50;" vertex="1" parent="Zu65PiX_Fs4sWuQjeC40-21">
          <mxGeometry y="60" width="140" height="30" as="geometry" />
        </mxCell>
        <mxCell id="Zu65PiX_Fs4sWuQjeC40-24" value="Parent-Message-Id" style="text;strokeColor=none;fillColor=none;align=left;verticalAlign=middle;spacingLeft=4;spacingRight=4;overflow=hidden;points=[[0,0.5],[1,0.5]];portConstraint=eastwest;rotatable=0;dashed=1;fontColor=#000000;opacity=50;" vertex="1" parent="Zu65PiX_Fs4sWuQjeC40-21">
          <mxGeometry y="90" width="140" height="30" as="geometry" />
        </mxCell>
        <mxCell id="Zu65PiX_Fs4sWuQjeC40-34" style="edgeStyle=orthogonalEdgeStyle;rounded=0;orthogonalLoop=1;jettySize=auto;html=1;fontColor=#000000;entryX=0.236;entryY=-0.014;entryDx=0;entryDy=0;entryPerimeter=0;" edge="1" parent="1" source="Zu65PiX_Fs4sWuQjeC40-26" target="Zu65PiX_Fs4sWuQjeC40-14">
          <mxGeometry relative="1" as="geometry">
            <mxPoint x="677" y="554" as="targetPoint" />
          </mxGeometry>
        </mxCell>
        <mxCell id="Zu65PiX_Fs4sWuQjeC40-26" value="request" style="swimlane;fontStyle=0;childLayout=stackLayout;horizontal=1;startSize=30;horizontalStack=0;resizeParent=1;resizeParentMax=0;resizeLast=0;collapsible=1;marginBottom=0;" vertex="1" parent="1">
          <mxGeometry x="609" y="413" width="140" height="90" as="geometry" />
        </mxCell>
        <mxCell id="Zu65PiX_Fs4sWuQjeC40-27" value="headerA :  xxx" style="text;strokeColor=none;fillColor=none;align=left;verticalAlign=middle;spacingLeft=4;spacingRight=4;overflow=hidden;points=[[0,0.5],[1,0.5]];portConstraint=eastwest;rotatable=0;" vertex="1" parent="Zu65PiX_Fs4sWuQjeC40-26">
          <mxGeometry y="30" width="140" height="30" as="geometry" />
        </mxCell>
        <mxCell id="Zu65PiX_Fs4sWuQjeC40-28" value="trace header : xxx" style="text;strokeColor=none;fillColor=none;align=left;verticalAlign=middle;spacingLeft=4;spacingRight=4;overflow=hidden;points=[[0,0.5],[1,0.5]];portConstraint=eastwest;rotatable=0;" vertex="1" parent="Zu65PiX_Fs4sWuQjeC40-26">
          <mxGeometry y="60" width="140" height="30" as="geometry" />
        </mxCell>
        <mxCell id="Zu65PiX_Fs4sWuQjeC40-29" style="edgeStyle=orthogonalEdgeStyle;rounded=0;orthogonalLoop=1;jettySize=auto;html=1;exitX=1;exitY=0.5;exitDx=0;exitDy=0;entryX=0;entryY=0.5;entryDx=0;entryDy=0;dashed=1;fontColor=#000000;" edge="1" parent="1" source="Zu65PiX_Fs4sWuQjeC40-23" target="Zu65PiX_Fs4sWuQjeC40-28">
          <mxGeometry relative="1" as="geometry" />
        </mxCell>
        <mxCell id="Zu65PiX_Fs4sWuQjeC40-30" style="edgeStyle=orthogonalEdgeStyle;rounded=0;orthogonalLoop=1;jettySize=auto;html=1;exitX=1;exitY=-0.017;exitDx=0;exitDy=0;fontColor=#000000;exitPerimeter=0;" edge="1" parent="1" source="Zu65PiX_Fs4sWuQjeC40-3" target="Zu65PiX_Fs4sWuQjeC40-8">
          <mxGeometry relative="1" as="geometry">
            <Array as="points">
              <mxPoint x="216" y="333" />
              <mxPoint x="216" y="334" />
            </Array>
          </mxGeometry>
        </mxCell>
        <mxCell id="Zu65PiX_Fs4sWuQjeC40-33" style="edgeStyle=orthogonalEdgeStyle;rounded=0;orthogonalLoop=1;jettySize=auto;html=1;exitX=0.5;exitY=1;exitDx=0;exitDy=0;entryX=0.5;entryY=0;entryDx=0;entryDy=0;fontColor=#000000;" edge="1" parent="1" source="Zu65PiX_Fs4sWuQjeC40-11" target="Zu65PiX_Fs4sWuQjeC40-26">
          <mxGeometry relative="1" as="geometry" />
        </mxCell>
        <mxCell id="Zu65PiX_Fs4sWuQjeC40-37" style="edgeStyle=orthogonalEdgeStyle;rounded=0;orthogonalLoop=1;jettySize=auto;html=1;exitX=1;exitY=0.5;exitDx=0;exitDy=0;fontColor=#000000;" edge="1" parent="1" source="Zu65PiX_Fs4sWuQjeC40-10">
          <mxGeometry relative="1" as="geometry">
            <mxPoint x="1114.2222222222222" y="335.1111111111111" as="targetPoint" />
          </mxGeometry>
        </mxCell>
        <mxCell id="Zu65PiX_Fs4sWuQjeC40-38" value="response" style="edgeLabel;html=1;align=center;verticalAlign=middle;resizable=0;points=[];fontColor=#000000;" vertex="1" connectable="0" parent="Zu65PiX_Fs4sWuQjeC40-37">
          <mxGeometry x="0.1797" relative="1" as="geometry">
            <mxPoint as="offset" />
          </mxGeometry>
        </mxCell>
        <mxCell id="Zu65PiX_Fs4sWuQjeC40-40" value="cat_agent" style="shape=cylinder3;whiteSpace=wrap;html=1;boundedLbl=1;backgroundOutline=1;size=15;fontColor=#000000;gradientColor=none;" vertex="1" parent="1">
          <mxGeometry x="822" y="126" width="99" height="86" as="geometry" />
        </mxCell>
        <mxCell id="Zu65PiX_Fs4sWuQjeC40-41" style="edgeStyle=orthogonalEdgeStyle;rounded=0;orthogonalLoop=1;jettySize=auto;html=1;exitX=0.5;exitY=0;exitDx=0;exitDy=0;entryX=0.5;entryY=1;entryDx=0;entryDy=0;entryPerimeter=0;fontColor=#000000;dashed=1;" edge="1" parent="1" source="Zu65PiX_Fs4sWuQjeC40-10" target="Zu65PiX_Fs4sWuQjeC40-40">
          <mxGeometry relative="1" as="geometry" />
        </mxCell>
        <mxCell id="Zu65PiX_Fs4sWuQjeC40-42" value="Report&amp;nbsp; Event (RemoteCall)" style="edgeLabel;html=1;align=center;verticalAlign=middle;resizable=0;points=[];fontColor=#000000;" vertex="1" connectable="0" parent="Zu65PiX_Fs4sWuQjeC40-41">
          <mxGeometry x="-0.2964" relative="1" as="geometry">
            <mxPoint as="offset" />
          </mxGeometry>
        </mxCell>
        <mxCell id="Zu65PiX_Fs4sWuQjeC40-35" style="edgeStyle=orthogonalEdgeStyle;rounded=0;orthogonalLoop=1;jettySize=auto;html=1;entryX=0.706;entryY=1.011;entryDx=0;entryDy=0;entryPerimeter=0;fontColor=#000000;exitX=0.5;exitY=0;exitDx=0;exitDy=0;" edge="1" parent="1" source="Zu65PiX_Fs4sWuQjeC40-15" target="Zu65PiX_Fs4sWuQjeC40-10">
          <mxGeometry relative="1" as="geometry">
            <mxPoint x="912" y="624" as="sourcePoint" />
          </mxGeometry>
        </mxCell>
        <mxCell id="Zu65PiX_Fs4sWuQjeC40-36" value="response" style="edgeLabel;html=1;align=center;verticalAlign=middle;resizable=0;points=[];fontColor=#000000;" vertex="1" connectable="0" parent="Zu65PiX_Fs4sWuQjeC40-35">
          <mxGeometry x="0.0718" y="2" relative="1" as="geometry">
            <mxPoint as="offset" />
          </mxGeometry>
        </mxCell>
        <mxCell id="Zu65PiX_Fs4sWuQjeC40-45" style="edgeStyle=orthogonalEdgeStyle;rounded=0;orthogonalLoop=1;jettySize=auto;html=1;exitX=0.5;exitY=0;exitDx=0;exitDy=0;entryX=0;entryY=0.5;entryDx=0;entryDy=0;entryPerimeter=0;fontColor=#000000;dashed=1;" edge="1" parent="1" source="Zu65PiX_Fs4sWuQjeC40-8" target="Zu65PiX_Fs4sWuQjeC40-40">
          <mxGeometry relative="1" as="geometry" />
        </mxCell>
        <mxCell id="Zu65PiX_Fs4sWuQjeC40-46" value="Report Transaction" style="edgeLabel;html=1;align=center;verticalAlign=middle;resizable=0;points=[];fontColor=#000000;" vertex="1" connectable="0" parent="Zu65PiX_Fs4sWuQjeC40-45">
          <mxGeometry x="0.4356" y="1" relative="1" as="geometry">
            <mxPoint as="offset" />
          </mxGeometry>
        </mxCell>
      </root>
    </mxGraphModel>
  </diagram>
</mxfile>
